<mxfile host="Electron" modified="2023-08-21T22:53:05.838Z" agent="Mozilla/5.0 (X11; Linux x86_64) AppleWebKit/537.36 (KHTML, like Gecko) draw.io/21.6.8 Chrome/114.0.5735.289 Electron/25.5.0 Safari/537.36" etag="T-ZdttodSqwcvFRT4Fhj" version="21.6.8" type="device">
  <diagram name="Page-1" id="c4acf3e9-155e-7222-9cf6-157b1a14988f">
    <mxGraphModel dx="1147" dy="671" grid="1" gridSize="10" guides="1" tooltips="1" connect="1" arrows="1" fold="1" page="1" pageScale="1" pageWidth="850" pageHeight="1100" background="none" math="0" shadow="0">
      <root>
        <mxCell id="0" />
        <mxCell id="1" parent="0" />
        <mxCell id="ME8FBttZCjmjAJyq_KVn-5" value="pkg" style="shape=umlFrame;whiteSpace=wrap;html=1;pointerEvents=0;" vertex="1" parent="1">
          <mxGeometry width="840" height="550" as="geometry" />
        </mxCell>
        <mxCell id="ME8FBttZCjmjAJyq_KVn-16" style="edgeStyle=orthogonalEdgeStyle;rounded=0;orthogonalLoop=1;jettySize=auto;html=1;startArrow=diamondThin;startFill=1;" edge="1" parent="1" source="ME8FBttZCjmjAJyq_KVn-6" target="ME8FBttZCjmjAJyq_KVn-10">
          <mxGeometry relative="1" as="geometry" />
        </mxCell>
        <mxCell id="ME8FBttZCjmjAJyq_KVn-19" value="- telefones" style="edgeLabel;html=1;align=center;verticalAlign=middle;resizable=0;points=[];" vertex="1" connectable="0" parent="ME8FBttZCjmjAJyq_KVn-16">
          <mxGeometry x="0.23" y="1" relative="1" as="geometry">
            <mxPoint x="4" y="-14" as="offset" />
          </mxGeometry>
        </mxCell>
        <mxCell id="ME8FBttZCjmjAJyq_KVn-27" style="edgeStyle=orthogonalEdgeStyle;rounded=0;orthogonalLoop=1;jettySize=auto;html=1;startArrow=diamondThin;startFill=1;" edge="1" parent="1" source="ME8FBttZCjmjAJyq_KVn-6" target="ME8FBttZCjmjAJyq_KVn-26">
          <mxGeometry relative="1" as="geometry" />
        </mxCell>
        <mxCell id="ME8FBttZCjmjAJyq_KVn-6" value="Candidato" style="swimlane;fontStyle=1;align=center;verticalAlign=top;childLayout=stackLayout;horizontal=1;startSize=26;horizontalStack=0;resizeParent=1;resizeParentMax=0;resizeLast=0;collapsible=1;marginBottom=0;whiteSpace=wrap;html=1;" vertex="1" parent="1">
          <mxGeometry x="310" y="225" width="255" height="86" as="geometry" />
        </mxCell>
        <mxCell id="ME8FBttZCjmjAJyq_KVn-7" value="- nome : String" style="text;strokeColor=none;fillColor=none;align=left;verticalAlign=top;spacingLeft=4;spacingRight=4;overflow=hidden;rotatable=0;points=[[0,0.5],[1,0.5]];portConstraint=eastwest;whiteSpace=wrap;html=1;" vertex="1" parent="ME8FBttZCjmjAJyq_KVn-6">
          <mxGeometry y="26" width="255" height="26" as="geometry" />
        </mxCell>
        <mxCell id="ME8FBttZCjmjAJyq_KVn-8" value="" style="line;strokeWidth=1;fillColor=none;align=left;verticalAlign=middle;spacingTop=-1;spacingLeft=3;spacingRight=3;rotatable=0;labelPosition=right;points=[];portConstraint=eastwest;strokeColor=inherit;" vertex="1" parent="ME8FBttZCjmjAJyq_KVn-6">
          <mxGeometry y="52" width="255" height="8" as="geometry" />
        </mxCell>
        <mxCell id="ME8FBttZCjmjAJyq_KVn-9" value="+ ligarTelefone(numeroTelefone : int) : void" style="text;strokeColor=none;fillColor=none;align=left;verticalAlign=top;spacingLeft=4;spacingRight=4;overflow=hidden;rotatable=0;points=[[0,0.5],[1,0.5]];portConstraint=eastwest;whiteSpace=wrap;html=1;" vertex="1" parent="ME8FBttZCjmjAJyq_KVn-6">
          <mxGeometry y="60" width="255" height="26" as="geometry" />
        </mxCell>
        <mxCell id="ME8FBttZCjmjAJyq_KVn-10" value="Telefone" style="swimlane;fontStyle=1;align=center;verticalAlign=top;childLayout=stackLayout;horizontal=1;startSize=26;horizontalStack=0;resizeParent=1;resizeParentMax=0;resizeLast=0;collapsible=1;marginBottom=0;whiteSpace=wrap;html=1;" vertex="1" parent="1">
          <mxGeometry x="70" y="225" width="160" height="86" as="geometry" />
        </mxCell>
        <mxCell id="ME8FBttZCjmjAJyq_KVn-11" value="+ field: type" style="text;strokeColor=none;fillColor=none;align=left;verticalAlign=top;spacingLeft=4;spacingRight=4;overflow=hidden;rotatable=0;points=[[0,0.5],[1,0.5]];portConstraint=eastwest;whiteSpace=wrap;html=1;" vertex="1" parent="ME8FBttZCjmjAJyq_KVn-10">
          <mxGeometry y="26" width="160" height="26" as="geometry" />
        </mxCell>
        <mxCell id="ME8FBttZCjmjAJyq_KVn-12" value="" style="line;strokeWidth=1;fillColor=none;align=left;verticalAlign=middle;spacingTop=-1;spacingLeft=3;spacingRight=3;rotatable=0;labelPosition=right;points=[];portConstraint=eastwest;strokeColor=inherit;" vertex="1" parent="ME8FBttZCjmjAJyq_KVn-10">
          <mxGeometry y="52" width="160" height="8" as="geometry" />
        </mxCell>
        <mxCell id="ME8FBttZCjmjAJyq_KVn-13" value="+ method(type): type" style="text;strokeColor=none;fillColor=none;align=left;verticalAlign=top;spacingLeft=4;spacingRight=4;overflow=hidden;rotatable=0;points=[[0,0.5],[1,0.5]];portConstraint=eastwest;whiteSpace=wrap;html=1;" vertex="1" parent="ME8FBttZCjmjAJyq_KVn-10">
          <mxGeometry y="60" width="160" height="26" as="geometry" />
        </mxCell>
        <mxCell id="ME8FBttZCjmjAJyq_KVn-18" value="1..3" style="text;html=1;align=center;verticalAlign=middle;resizable=0;points=[];autosize=1;strokeColor=none;fillColor=none;" vertex="1" parent="1">
          <mxGeometry x="230" y="273" width="40" height="30" as="geometry" />
        </mxCell>
        <mxCell id="ME8FBttZCjmjAJyq_KVn-21" style="edgeStyle=orthogonalEdgeStyle;rounded=0;orthogonalLoop=1;jettySize=auto;html=1;startArrow=diamondThin;startFill=1;" edge="1" parent="1" source="ME8FBttZCjmjAJyq_KVn-20" target="ME8FBttZCjmjAJyq_KVn-6">
          <mxGeometry relative="1" as="geometry" />
        </mxCell>
        <mxCell id="ME8FBttZCjmjAJyq_KVn-20" value="Admissão" style="html=1;whiteSpace=wrap;" vertex="1" parent="1">
          <mxGeometry x="377.5" y="85" width="120" height="50" as="geometry" />
        </mxCell>
        <mxCell id="ME8FBttZCjmjAJyq_KVn-22" value="1" style="text;html=1;align=center;verticalAlign=middle;resizable=0;points=[];autosize=1;strokeColor=none;fillColor=none;" vertex="1" parent="1">
          <mxGeometry x="445" y="183" width="30" height="30" as="geometry" />
        </mxCell>
        <mxCell id="ME8FBttZCjmjAJyq_KVn-23" value="Profissão" style="html=1;whiteSpace=wrap;" vertex="1" parent="1">
          <mxGeometry x="670" y="239" width="110" height="50" as="geometry" />
        </mxCell>
        <mxCell id="ME8FBttZCjmjAJyq_KVn-24" style="edgeStyle=orthogonalEdgeStyle;rounded=0;orthogonalLoop=1;jettySize=auto;html=1;startArrow=diamondThin;startFill=0;" edge="1" parent="1" source="ME8FBttZCjmjAJyq_KVn-7" target="ME8FBttZCjmjAJyq_KVn-23">
          <mxGeometry relative="1" as="geometry" />
        </mxCell>
        <mxCell id="ME8FBttZCjmjAJyq_KVn-25" value="0..1" style="text;html=1;align=center;verticalAlign=middle;resizable=0;points=[];autosize=1;strokeColor=none;fillColor=none;" vertex="1" parent="1">
          <mxGeometry x="630" y="273" width="40" height="30" as="geometry" />
        </mxCell>
        <mxCell id="ME8FBttZCjmjAJyq_KVn-26" value="Endereço" style="html=1;whiteSpace=wrap;" vertex="1" parent="1">
          <mxGeometry x="383" y="415" width="110" height="50" as="geometry" />
        </mxCell>
        <mxCell id="ME8FBttZCjmjAJyq_KVn-28" value="1" style="text;html=1;align=center;verticalAlign=middle;resizable=0;points=[];autosize=1;strokeColor=none;fillColor=none;" vertex="1" parent="1">
          <mxGeometry x="445" y="385" width="30" height="30" as="geometry" />
        </mxCell>
        <mxCell id="ME8FBttZCjmjAJyq_KVn-29" value="pkg" style="shape=umlFrame;whiteSpace=wrap;html=1;pointerEvents=0;" vertex="1" parent="1">
          <mxGeometry y="550" width="840" height="550" as="geometry" />
        </mxCell>
        <mxCell id="ME8FBttZCjmjAJyq_KVn-43" value="Cliente" style="html=1;whiteSpace=wrap;" vertex="1" parent="1">
          <mxGeometry x="373" y="635" width="120" height="50" as="geometry" />
        </mxCell>
        <mxCell id="ME8FBttZCjmjAJyq_KVn-44" value="1" style="text;html=1;align=center;verticalAlign=middle;resizable=0;points=[];autosize=1;strokeColor=none;fillColor=none;" vertex="1" parent="1">
          <mxGeometry x="425" y="685" width="30" height="30" as="geometry" />
        </mxCell>
        <mxCell id="ME8FBttZCjmjAJyq_KVn-56" style="edgeStyle=orthogonalEdgeStyle;rounded=0;orthogonalLoop=1;jettySize=auto;html=1;startArrow=diamondThin;startFill=1;" edge="1" parent="1" source="ME8FBttZCjmjAJyq_KVn-48" target="ME8FBttZCjmjAJyq_KVn-55">
          <mxGeometry relative="1" as="geometry" />
        </mxCell>
        <mxCell id="ME8FBttZCjmjAJyq_KVn-48" value="Item" style="html=1;whiteSpace=wrap;" vertex="1" parent="1">
          <mxGeometry x="377.5" y="965" width="110" height="50" as="geometry" />
        </mxCell>
        <mxCell id="ME8FBttZCjmjAJyq_KVn-49" value="1..*" style="text;html=1;align=center;verticalAlign=middle;resizable=0;points=[];autosize=1;strokeColor=none;fillColor=none;" vertex="1" parent="1">
          <mxGeometry x="440" y="930" width="40" height="30" as="geometry" />
        </mxCell>
        <mxCell id="ME8FBttZCjmjAJyq_KVn-52" style="edgeStyle=orthogonalEdgeStyle;rounded=0;orthogonalLoop=1;jettySize=auto;html=1;startArrow=diamondThin;startFill=1;" edge="1" parent="1" source="ME8FBttZCjmjAJyq_KVn-51" target="ME8FBttZCjmjAJyq_KVn-43">
          <mxGeometry relative="1" as="geometry" />
        </mxCell>
        <mxCell id="ME8FBttZCjmjAJyq_KVn-54" style="edgeStyle=orthogonalEdgeStyle;rounded=0;orthogonalLoop=1;jettySize=auto;html=1;startArrow=diamondThin;startFill=1;" edge="1" parent="1" source="ME8FBttZCjmjAJyq_KVn-51" target="ME8FBttZCjmjAJyq_KVn-48">
          <mxGeometry relative="1" as="geometry" />
        </mxCell>
        <mxCell id="ME8FBttZCjmjAJyq_KVn-51" value="Pedido" style="html=1;whiteSpace=wrap;" vertex="1" parent="1">
          <mxGeometry x="377.5" y="800" width="110" height="50" as="geometry" />
        </mxCell>
        <mxCell id="ME8FBttZCjmjAJyq_KVn-55" value="Produto" style="html=1;whiteSpace=wrap;" vertex="1" parent="1">
          <mxGeometry x="580" y="965" width="110" height="50" as="geometry" />
        </mxCell>
        <mxCell id="ME8FBttZCjmjAJyq_KVn-57" value="1..*" style="text;html=1;align=center;verticalAlign=middle;resizable=0;points=[];autosize=1;strokeColor=none;fillColor=none;" vertex="1" parent="1">
          <mxGeometry x="540" y="1000" width="40" height="30" as="geometry" />
        </mxCell>
      </root>
    </mxGraphModel>
  </diagram>
</mxfile>
